<svg xmlns="http://www.w3.org/2000/svg" viewBox="0 0 512 512">
  <!-- Achtergrond warm beige -->
  <rect width="512" height="512" rx="90" fill="#c8926a"/>

  <!-- Huis/kat lichaam (muren) -->
  <rect x="98" y="296" width="316" height="174" rx="10" fill="#fdf0e0"/>

  <!-- Dak met kattenoren -->
  <path d="M 98,300 L 170,138 L 234,224 L 256,208 L 278,224 L 342,138 L 414,300 Z" fill="#fdf0e0"/>

  <!-- Binnenoor roze links -->
  <path d="M 175,145 L 205,182 L 229,220 Z" fill="#f0a8a0" opacity="0.75"/>
  <!-- Binnenoor roze rechts -->
  <path d="M 337,145 L 307,182 L 283,220 Z" fill="#f0a8a0" opacity="0.75"/>

  <!-- Linkeroog -->
  <ellipse cx="186" cy="346" rx="26" ry="30" fill="#3d2b1a"/>
  <ellipse cx="195" cy="337" rx="8" ry="10" fill="white" opacity="0.3"/>

  <!-- Rechteroog -->
  <ellipse cx="326" cy="346" rx="26" ry="30" fill="#3d2b1a"/>
  <ellipse cx="335" cy="337" rx="8" ry="10" fill="white" opacity="0.3"/>

  <!-- Neusje -->
  <path d="M 249,386 L 256,395 L 263,386 Z" fill="#d97070"/>

  <!-- Mondje -->
  <path d="M 256,395 Q 242,408 236,403" fill="none" stroke="#d97070" stroke-width="4.5" stroke-linecap="round"/>
  <path d="M 256,395 Q 270,408 276,403" fill="none" stroke="#d97070" stroke-width="4.5" stroke-linecap="round"/>

  <!-- Hartje (deur/buik) -->
  <path d="M 256,458 C 256,458 214,430 214,407 C 214,392 232,384 256,403 C 280,384 298,392 298,407 C 298,430 256,458 256,458 Z" fill="#e85d75"/>

  <!-- Snorharen links -->
  <line x1="108" y1="366" x2="210" y2="374" stroke="#3d2b1a" stroke-width="4" stroke-linecap="round" opacity="0.4"/>
  <line x1="108" y1="387" x2="210" y2="390" stroke="#3d2b1a" stroke-width="4" stroke-linecap="round" opacity="0.4"/>

  <!-- Snorharen rechts -->
  <line x1="404" y1="366" x2="302" y2="374" stroke="#3d2b1a" stroke-width="4" stroke-linecap="round" opacity="0.4"/>
  <line x1="404" y1="387" x2="302" y2="390" stroke="#3d2b1a" stroke-width="4" stroke-linecap="round" opacity="0.4"/>

  <!-- Staartje -->
  <path d="M 414,430 Q 472,388 466,458 Q 460,492 418,482" fill="none" stroke="#fdf0e0" stroke-width="26" stroke-linecap="round"/>
</svg>
